<?xml version="1.0" ?>

<!-- Uploaded to: SVG Repo, www.svgrepo.com, Generator: SVG Repo Mixer Tools -->
<svg fill="#000000" width="48px" height="48px" viewBox="0 0 100 100" xmlns="http://www.w3.org/2000/svg">

<title/>

<g data-name="Calque 2" id="Calque_2">

<path d="M73.37,39.06a1.35,1.35,0,0,0-.09-.33,2.44,2.44,0,0,0-.14-.28L62.92,11.63a1.5,1.5,0,0,0-2.8,0L47.52,44.7l-.16-.41h0L38.29,20.47a1.5,1.5,0,0,0-2.81,0L27.15,42.35h0L10.85,85.13A1.5,1.5,0,0,0,11,86.52a1.53,1.53,0,0,0,1.24.65H89.52a1.51,1.51,0,0,0,1.4-2Zm-14,45.11H35.7L53.36,37.79c3.53-.49,5.5.63,7.55,1.83a11.93,11.93,0,0,0,6.41,2.15A12.48,12.48,0,0,0,71,41.18l16.37,43Zm2.18-67.79,8.38,22c-3.49,1-5.28,0-7.47-1.33a13.33,13.33,0,0,0-7.87-2.38ZM36.88,25.21,44,43.82c-1.83.38-2.89-.14-4.43-.93a14.05,14.05,0,0,0-8.7-1.81Zm-7.25,19c4.55-.75,6.58.29,8.54,1.3A9.65,9.65,0,0,0,42.81,47a9.1,9.1,0,0,0,2.24-.31l.86,2.27L32.49,84.17H14.43Z"/>

</g>

</svg>
