<?xml version="1.0" ?>

<!DOCTYPE svg  PUBLIC '-//W3C//DTD SVG 1.1//EN'  'http://www.w3.org/Graphics/SVG/1.1/DTD/svg11.dtd'>

<!-- Uploaded to: SVG Repo, www.svgrepo.com, Generator: SVG Repo Mixer Tools -->
<svg fill="#000000" width="48px" height="48px" viewBox="0 0 100 100" version="1.1" xml:space="preserve" xmlns="http://www.w3.org/2000/svg" xmlns:xlink="http://www.w3.org/1999/xlink">

<g id="_x31_"/>

<g id="_x32_"/>

<g id="_x33_"/>

<g id="_x34_"/>

<g id="_x35_"/>

<g id="_x36_"/>

<g id="_x37_"/>

<g id="_x38__x27_">

<path d="M86.8,82.4H13.2c-0.8,0-1.5-0.7-1.5-1.5s0.7-1.5,1.5-1.5h73.6c0.8,0,1.5,0.7,1.5,1.5S87.6,82.4,86.8,82.4z M45.6,57.1   c-0.3,0.5-0.8,0.8-1.3,0.8h-9.9v23c0,0.8-0.7,1.5-1.5,1.5h-6.3c-0.8,0-1.5-0.7-1.5-1.5v-23h-9.9c-0.5,0-1-0.3-1.3-0.8   c-0.3-0.5-0.3-1,0-1.5l5.6-9.8h-4.3c-0.5,0-1-0.3-1.3-0.8c-0.3-0.5-0.3-1,0-1.5l14.5-25.2c0.3-0.5,0.8-0.8,1.3-0.8s1,0.3,1.3,0.8   l14.5,25.2c0.3,0.5,0.3,1,0,1.5c-0.3,0.5-0.8,0.8-1.3,0.8H40l5.6,9.8C45.9,56,45.9,56.6,45.6,57.1z M31.4,57.8h-3.3v21.5h3.3V57.8z    M41.7,54.8l-5.6-9.8c-0.3-0.5-0.3-1,0-1.5c0.3-0.5,0.8-0.8,1.3-0.8h4.3L29.8,22.1L17.8,42.8h4.3c0.5,0,1,0.3,1.3,0.8   c0.3,0.5,0.3,1,0,1.5l-5.6,9.8H41.7z M84.4,57.8h-3l4.3,7.4c0.3,0.5,0.3,1,0,1.5c-0.3,0.5-0.8,0.8-1.3,0.8H74.3v13.4   c0,0.8-0.7,1.5-1.5,1.5h-6.3c-0.8,0-1.5-0.7-1.5-1.5V67.4h-9.7c-0.5,0-1-0.3-1.3-0.8c-0.3-0.5-0.3-1,0-1.5l4.3-7.4h-3   c-0.5,0-1-0.3-1.3-0.8c-0.3-0.5-0.3-1,0-1.5l5.6-9.8h-4.3c-0.5,0-1-0.3-1.3-0.8c-0.3-0.5-0.3-1,0-1.5l14.5-25.2   c0.3-0.5,0.8-0.8,1.3-0.8s1,0.3,1.3,0.8l14.5,25.2c0.3,0.5,0.3,1,0,1.5c-0.3,0.5-0.8,0.8-1.3,0.8h-4.3l5.6,9.8c0.3,0.5,0.3,1,0,1.5   C85.4,57.5,84.9,57.8,84.4,57.8z M71.3,67.4h-3.3v11.9h3.3V67.4z M81.8,54.8l-5.6-9.8c-0.3-0.5-0.3-1,0-1.5   c0.3-0.5,0.8-0.8,1.3-0.8h4.3L69.9,22.1L57.9,42.8h4.3c0.5,0,1,0.3,1.3,0.8c0.3,0.5,0.3,1,0,1.5l-5.6,9.8h3c0.5,0,1,0.3,1.3,0.8   c0.3,0.5,0.3,1,0,1.5l-4.3,7.4h8.6h6.3h9l-4.3-7.4c-0.3-0.5-0.3-1,0-1.5c0.3-0.5,0.8-0.8,1.3-0.8H81.8z M67.4,39.5l2.4-4.7   c0.4-0.7,0.1-1.6-0.7-2c-0.7-0.4-1.6-0.1-2,0.7l-2.4,4.7c-0.4,0.7-0.1,1.6,0.7,2c0.2,0.1,0.5,0.2,0.7,0.2   C66.6,40.4,67.1,40.1,67.4,39.5z"/>

</g>

<g id="_x39_"/>

<g id="_x31_0"/>

<g id="_x31_1"/>

<g id="_x31_2"/>

<g id="_x31_3"/>

<g id="_x31_4"/>

<g id="_x31_5"/>

<g id="_x31_6"/>

<g id="_x31_7"/>

<g id="_x31_8"/>

<g id="_x31_9"/>

<g id="_x32_0"/>

<g id="_x32_1"/>

<g id="_x32_2"/>

<g id="_x32_3"/>

<g id="_x32_4"/>

<g id="_x32_5"/>

</svg>
