 <svg version="1.0" xmlns="http://www.w3.org/2000/svg" width="700.000000pt" height="700.000000pt" viewBox="0 0 700.000000 700.000000" preserveAspectRatio="xMidYMid meet">
<metadata>
Created by potrace 1.12, written by Peter Selinger 2001-2015
</metadata>
<g transform="translate(0.000000,700.000000) scale(0.100000,-0.100000)" fill="#000000" stroke="none">
<path d="M3275 6949 c-279 -16 -547 -66 -805 -150 -77 -24 -195 -66 -230 -81
-14 -6 -34 -14 -45 -18 -138 -53 -413 -197 -565 -296 -311 -203 -635 -501
-842 -776 -115 -153 -148 -198 -148 -203 0 -3 -15 -27 -33 -53 -41 -58 -150
-251 -199 -352 -56 -115 -98 -209 -98 -220 0 -6 -4 -18 -9 -28 -23 -45 -81
-209 -102 -289 -5 -18 -14 -50 -20 -70 -21 -76 -63 -271 -78 -363 -33 -208
-36 -248 -36 -550 0 -302 3 -342 36 -550 15 -92 57 -287 78 -362 6 -21 15 -53
20 -70 21 -81 79 -245 102 -290 5 -10 9 -22 9 -28 0 -11 42 -105 98 -220 49
-101 158 -294 199 -352 18 -26 33 -50 33 -53 0 -5 33 -50 148 -203 246 -325
622 -654 991 -866 89 -51 101 -51 101 5 0 14 4 39 9 55 5 16 14 49 21 74 22
77 71 223 90 265 10 22 37 81 60 130 23 50 55 119 71 155 36 79 82 170 136
270 22 41 71 134 108 205 37 72 73 137 80 145 7 8 29 49 49 90 33 69 71 140
138 260 14 25 43 79 65 120 22 41 61 108 86 148 26 40 47 76 47 81 0 5 4 11 8
13 10 4 42 71 37 77 -5 4 -165 -138 -165 -148 -1 -18 -176 -184 -245 -232 -88
-61 -213 -125 -263 -135 -33 -7 -106 9 -154 33 -37 18 -65 49 -73 80 -3 14
-17 40 -31 58 -30 40 -54 116 -54 174 0 72 29 226 76 401 56 209 69 251 107
352 68 180 347 729 575 1133 25 44 71 130 102 190 32 61 67 127 79 148 50 88
61 107 116 212 32 61 69 127 82 147 13 21 23 42 23 48 0 5 5 10 10 10 6 0 10
5 10 12 0 8 -32 9 -122 4 -220 -13 -401 -26 -493 -35 -331 -34 -414 -32 -482
10 -92 57 -125 127 -109 234 15 96 62 103 766 116 300 5 563 13 584 17 33 6
45 16 77 62 21 30 47 78 58 105 10 28 31 77 46 110 40 89 43 96 55 153 7 28
17 53 23 53 7 1 17 2 22 3 97 18 99 18 160 -13 33 -16 76 -43 95 -59 31 -26
34 -34 32 -76 -2 -53 -48 -160 -110 -256 -23 -35 -42 -68 -42 -72 0 -4 64 -8
143 -8 78 0 194 -4 257 -10 63 -5 234 -10 380 -11 146 -1 273 -4 283 -6 18 -5
47 -52 47 -77 0 -8 21 -35 47 -59 40 -38 47 -50 47 -85 1 -22 4 -44 9 -48 13
-13 7 -48 -13 -81 -18 -31 -22 -32 -70 -29 -34 2 -59 11 -73 24 -36 33 -88 40
-357 52 -539 24 -735 29 -774 19 -21 -6 -44 -8 -52 -5 -26 10 -63 -13 -91 -56
-15 -24 -57 -100 -94 -170 -36 -70 -79 -145 -95 -165 -16 -21 -34 -47 -40 -58
-6 -11 -22 -42 -37 -68 -15 -26 -27 -54 -27 -62 0 -7 -21 -44 -46 -82 -52 -77
-162 -261 -222 -373 -21 -41 -50 -93 -62 -115 -67 -118 -235 -441 -329 -630
-81 -164 -111 -228 -111 -239 0 -3 -10 -28 -21 -54 -42 -93 -48 -108 -73 -184
-14 -42 -26 -87 -26 -100 0 -13 -6 -32 -13 -43 -35 -53 -98 -357 -76 -370 5
-4 67 35 138 84 71 50 134 91 139 91 5 0 17 12 27 26 29 45 56 72 270 272 556
522 548 513 586 590 18 37 54 103 80 147 69 119 96 168 159 290 66 127 146
277 205 385 22 41 67 128 98 192 32 65 63 121 69 124 52 32 242 -48 275 -115
9 -20 17 -58 17 -86 1 -57 -17 -96 -135 -297 -16 -27 -29 -51 -29 -53 0 -2
-13 -26 -30 -52 -38 -59 -38 -70 -1 -44 16 12 32 21 35 21 3 0 31 16 61 36 78
49 261 133 367 168 143 47 315 41 358 -12 8 -11 47 -32 87 -47 67 -26 74 -31
110 -89 37 -60 47 -97 60 -225 3 -29 1 -63 -5 -75 -5 -11 -15 -39 -22 -61 -7
-22 -30 -80 -52 -128 -22 -49 -38 -90 -36 -93 3 -2 38 7 79 20 41 13 101 29
134 35 33 7 76 17 96 22 20 5 99 9 177 9 125 0 142 -2 163 -20 24 -20 24 -20
5 -35 -11 -8 -28 -15 -37 -15 -9 0 -97 -38 -194 -85 -97 -47 -188 -88 -203
-91 -15 -3 -38 -9 -52 -14 -14 -4 -45 -14 -70 -21 -25 -7 -64 -23 -86 -36 -23
-12 -70 -33 -105 -46 -114 -43 -157 -66 -181 -97 -188 -247 -544 -633 -723
-786 -130 -110 -335 -257 -495 -354 -168 -101 -271 -128 -372 -98 -54 16 -168
128 -168 165 0 16 -4 23 -9 18 -5 -6 -53 -95 -106 -200 -54 -104 -124 -240
-156 -301 -261 -496 -359 -711 -439 -953 -54 -167 -60 -208 -32 -217 9 -3 26
-10 37 -14 11 -5 52 -20 90 -33 276 -99 472 -144 800 -186 242 -31 659 -19
945 28 91 14 303 62 360 81 14 4 45 13 70 20 25 7 54 16 65 20 11 5 49 18 85
30 36 12 81 29 100 37 19 8 44 19 55 23 97 39 296 136 383 187 41 24 75 43 78
43 4 0 154 98 229 151 195 135 521 444 682 644 189 236 359 517 486 805 22 50
94 240 102 270 3 14 10 34 14 45 5 11 14 40 21 65 7 25 16 56 21 70 33 101 75
326 101 540 17 138 17 622 0 760 -28 233 -60 396 -114 580 -5 19 -12 47 -15
63 -3 15 -9 30 -14 33 -5 3 -9 12 -9 20 0 13 -54 169 -80 229 -134 320 -308
615 -513 870 -163 202 -454 478 -667 632 -72 52 -238 163 -244 163 -3 0 -37
19 -78 43 -104 61 -326 168 -433 207 -11 4 -33 13 -50 20 -16 6 -50 18 -75 26
-25 8 -54 19 -65 23 -11 5 -40 14 -65 21 -25 7 -56 16 -70 21 -57 18 -269 66
-360 80 -267 43 -519 55 -805 38z"></path>
<path d="M3613 5369 c-7 -7 -13 -15 -13 -18 0 -4 89 -7 198 -8 108 -1 256 -7
327 -13 72 -6 184 -15 250 -20 216 -18 249 -18 253 3 3 15 -1 18 -15 13 -10
-3 -45 -1 -78 5 -206 35 -897 64 -922 38z"></path>
<path d="M3025 5350 c-4 -6 19 -10 62 -10 48 0 63 3 53 10 -20 13 -107 13
-115 0z"></path>
<path d="M3750 5240 c0 -5 9 -10 21 -10 11 0 17 5 14 10 -3 6 -13 10 -21 10
-8 0 -14 -4 -14 -10z"></path>
<path d="M4725 3964 c-110 -27 -254 -90 -390 -173 -85 -51 -393 -262 -500
-342 -146 -109 -172 -141 -293 -359 -13 -25 -28 -49 -32 -55 -12 -17 -74 -133
-140 -265 -35 -69 -74 -141 -86 -161 -45 -72 -135 -249 -127 -249 7 0 85 63
160 131 32 29 228 159 239 159 3 0 18 8 32 19 15 10 47 29 72 43 111 62 126
71 145 87 11 9 65 39 120 66 55 27 124 64 153 82 29 18 55 33 57 33 3 0 36 20
75 45 39 25 73 45 76 45 3 0 24 13 47 28 50 34 109 62 130 62 59 0 310 393
366 571 29 93 37 201 17 218 -17 14 -88 23 -121 15z"></path>
<path d="M3450 3525 c-19 -36 -7 -40 14 -5 9 17 13 30 8 30 -5 0 -15 -11 -22
-25z"></path>
<path d="M3009 2713 c-8 -16 -32 -62 -55 -103 -23 -41 -67 -124 -99 -185 -32
-60 -61 -114 -65 -120 -8 -10 -55 -99 -160 -300 -111 -213 -183 -349 -202
-384 -10 -18 -18 -37 -16 -43 7 -20 133 174 158 244 9 26 20 51 23 55 4 3 7
14 7 22 0 9 13 32 28 51 16 19 70 118 122 220 51 102 107 205 125 230 31 43
48 76 129 254 40 87 39 86 28 86 -5 0 -15 -12 -23 -27z"></path>
<path d="M4012 2654 c-29 -18 -55 -34 -57 -34 -13 0 -126 -80 -175 -124 -30
-27 -70 -55 -88 -63 -35 -15 -53 -28 -121 -89 -25 -23 -68 -61 -96 -85 -135
-116 -189 -179 -154 -179 5 0 47 23 92 52 174 110 250 164 258 186 6 14 17 22
33 22 16 0 39 16 68 46 43 45 152 152 258 251 64 61 57 67 -18 17z"></path>
<path d="M2345 1460 c-3 -5 -1 -10 4 -10 6 0 11 5 11 10 0 6 -2 10 -4 10 -3 0
-8 -4 -11 -10z"></path>
<path d="M2318 1408 c-25 -40 -108 -218 -108 -233 0 -8 -4 -17 -10 -20 -12 -7
-13 -25 -2 -25 14 0 49 67 87 165 21 55 43 106 48 113 5 7 8 15 5 18 -3 2 -12
-6 -20 -18z"></path>
<path d="M2132 998 c-11 -24 -28 -61 -37 -83 -9 -22 -21 -48 -26 -57 -5 -10
-9 -26 -8 -35 0 -13 3 -11 12 7 13 29 45 104 59 140 6 14 15 33 20 43 5 11 7
21 5 23 -3 3 -14 -14 -25 -38z"></path>
<path d="M2042 780 c0 -14 2 -19 5 -12 2 6 2 18 0 25 -3 6 -5 1 -5 -13z"></path>
<path d="M2021 734 c0 -11 3 -14 6 -6 3 7 2 16 -1 19 -3 4 -6 -2 -5 -13z"></path>
<path d="M1996 685 c-3 -8 -1 -15 4 -15 6 0 10 7 10 15 0 8 -2 15 -4 15 -2 0
-6 -7 -10 -15z"></path>
</g>
</svg>